<svg width="800" height="800" viewBox="0 0 512 512" xml:space="preserve" xmlns="http://www.w3.org/2000/svg">
    <path d="M326.219 235.43v-59.998c0-1.895 1.555-3.479 3.479-3.479h15.24c1.908 0 3.463 1.584 3.463 3.479v34.92c0 3.223-.494 6.361-1.428 9.357a31.52 31.52 0 0 1-4.1 8.512 33.317 33.317 0 0 1-5.146 5.852 31.714 31.714 0 0 1-6.106 4.242 3.477 3.477 0 0 1-1.923.594 3.476 3.476 0 0 1-3.479-3.479m6.956-56.521v49.904a24.922 24.922 0 0 0 3.959-4.495 25.043 25.043 0 0 0 3.224-6.645 24.791 24.791 0 0 0 1.102-7.322v-31.442h-8.285zm-148.596-3.477v59.998a3.755 3.755 0 0 1-.411 1.584c-.875 1.695-2.969 2.347-4.666 1.471a31.495 31.495 0 0 1-6.417-4.412 32.18 32.18 0 0 1-5.146-5.852 31.184 31.184 0 0 1-4.127-8.512 31.849 31.849 0 0 1-1.414-9.357v-34.92c0-1.895 1.555-3.479 3.478-3.479h15.226c1.907 0 3.477 1.584 3.477 3.479zm60.267-17.7c-1.923 0-3.478-1.556-3.478-3.479s1.555-3.478 3.478-3.478h81.373V139.07h-141.64v20.047a3.486 3.486 0 0 1-3.478 3.479h-26.875v48.942c0 4.495.735 8.765 2.093 12.752a39.844 39.844 0 0 0 6.106 11.451 40.87 40.87 0 0 0 8.963 8.567 39.941 39.941 0 0 0 11.041 5.429 3.458 3.458 0 0 1 2.432 2.997 68.95 68.95 0 0 0 4.991 20.244l.056.142a71.49 71.49 0 0 0 10.915 18.124 72.57 72.57 0 0 0 15.889 14.223 70.654 70.654 0 0 0 19.255 8.849 3.48 3.48 0 0 1 2.46 2.63c.933 4.411 1.3 8.878 1.188 13.317-.114 4.383-.708 8.765-1.669 13.12l-.028.112c-1.018 4.608-2.474 9.188-4.241 13.77-1.526 3.901-3.279 7.804-5.188 11.706h53.735c-1.81-3.619-3.492-7.295-4.977-11.027l-.141-.283c-1.767-4.467-3.223-9.047-4.269-13.684-.99-4.383-1.585-8.851-1.684-13.346-.098-4.524.283-9.105 1.259-13.714a3.415 3.415 0 0 1 2.46-2.602 71.338 71.338 0 0 0 19.227-8.849 71.872 71.872 0 0 0 15.875-14.251c4.496-5.429 8.215-11.536 10.93-18.096a70.236 70.236 0 0 0 5.032-20.357c.114-1.386 1.032-2.63 2.433-3.054a40.589 40.589 0 0 0 11.055-5.4 40.766 40.766 0 0 0 8.935-8.567 39.923 39.923 0 0 0 6.135-11.451 39.87 39.87 0 0 0 2.094-12.752v-48.942h-26.89a3.476 3.476 0 0 1-3.479-3.479v-1.385h-81.373zm-17.502-6.956c1.921 0 3.478 1.555 3.478 3.478s-1.556 3.479-3.478 3.479h-17.191c-1.923 0-3.478-1.556-3.478-3.479s1.555-3.478 3.478-3.478h17.191zM200.865 396.85h109.083v-20.924H200.866l-.001 20.924zm81.627-16.089c1.923 0 3.478 1.584 3.478 3.478a3.476 3.476 0 0 1-3.478 3.479h-9.881a3.476 3.476 0 0 1-3.479-3.479c0-1.894 1.555-3.478 3.479-3.478h9.881zm-1.116-174.029c-6.646-6.645-15.833-10.773-25.97-10.773a36.52 36.52 0 0 0-25.8 10.603l-.17.171c-6.644 6.644-10.758 15.832-10.758 25.955 0 10.15 4.115 19.34 10.758 25.984 6.631 6.645 15.819 10.744 25.971 10.744 10.137 0 19.324-4.1 25.97-10.744 6.644-6.645 10.759-15.834 10.759-25.984a36.535 36.535 0 0 0-10.589-25.786l-.171-.17zm-25.97-17.728c12.059 0 22.973 4.891 30.891 12.808l.196.227c7.775 7.888 12.583 18.718 12.583 30.649 0 12.073-4.893 22.986-12.779 30.904-7.918 7.889-18.832 12.779-30.891 12.779-12.045 0-22.974-4.891-30.875-12.809-7.903-7.889-12.81-18.802-12.81-30.875a43.532 43.532 0 0 1 12.794-30.876l.212-.197c7.876-7.775 18.719-12.61 30.679-12.61zm3.266 38.057-3.266-10.122-3.266 10.122a3.497 3.497 0 0 1-3.308 2.404l-10.646-.029 8.553 6.193a3.466 3.466 0 0 1 1.344 3.93l-3.31 10.121 8.583-6.248a3.455 3.455 0 0 1 4.085-.028l8.597 6.276-3.31-10.121c-.438-1.387.014-2.969 1.258-3.874l8.625-6.249-10.434.029c-1.54.084-3.011-.849-3.505-2.404zm1.498-17.926 4.325 13.402 14.337-.028a3.483 3.483 0 0 1 3.308 2.403l.848 2.629c.467 1.471-.085 2.998-1.272 3.874l-11.606 8.397 4.454 13.657a3.453 3.453 0 0 1-1.557 4.071l-2.092 1.413a3.473 3.473 0 0 1-4.099-.142l-11.409-8.313-11.606 8.454c-1.244.905-2.885.849-4.073 0l-2.234-1.61a3.486 3.486 0 0 1-1.244-3.874l4.439-13.657-11.606-8.397c-1.258-.905-1.725-2.544-1.244-3.93l.833-2.573c.481-1.527 1.951-2.488 3.506-2.403l14.138.028 4.41-13.629a3.487 3.487 0 0 1 3.293-2.431h2.759a3.491 3.491 0 0 1 3.392 2.659zm52.081-149.034a67.4 67.4 0 0 0 6.899 9.811 70.577 70.577 0 0 0 8.511 8.427 69.148 69.148 0 0 0 9.897 6.785 66.308 66.308 0 0 0 10.912 4.892c3.69 1.3 7.465 2.233 11.281 2.856a66.699 66.699 0 0 0-.889-11.594c-.638-3.901-1.655-7.775-3.012-11.621a68.975 68.975 0 0 0-5.019-10.885 68.057 68.057 0 0 0-6.886-9.783 67.928 67.928 0 0 0-8.539-8.454 68 68 0 0 0-9.867-6.786 66.313 66.313 0 0 0-10.914-4.891 68.457 68.457 0 0 0-11.31-2.855 68.307 68.307 0 0 0 .904 11.592 67.74 67.74 0 0 0 3.024 11.621 69.282 69.282 0 0 0 5.008 10.885zm-119.911 9.81c2.628-3.138 4.948-6.418 6.898-9.811a68.782 68.782 0 0 0 5.004-10.886 67.378 67.378 0 0 0 3.025-11.621c.637-3.846.934-7.747.891-11.592a68.718 68.718 0 0 0-11.295 2.855 66.202 66.202 0 0 0-10.915 4.891 67.945 67.945 0 0 0-9.867 6.786 67.069 67.069 0 0 0-8.539 8.454 68.137 68.137 0 0 0-6.886 9.783 68.975 68.975 0 0 0-5.019 10.885c-1.356 3.846-2.376 7.72-3.011 11.621a66.72 66.72 0 0 0-.905 11.594c3.818-.623 7.607-1.557 11.295-2.856a66.282 66.282 0 0 0 10.915-4.892 69.083 69.083 0 0 0 9.896-6.785 70.22 70.22 0 0 0 8.513-8.426zm-79.565 32.798c3.676-3.477 7.522-6.813 11.479-10.037a207.282 207.282 0 0 1 15.905-11.705c1.683-1.131 3.973-.65 5.089 1.018a3.682 3.682 0 0 1-1.032 5.09 202.395 202.395 0 0 0-15.353 11.31 206.586 206.586 0 0 0-13.685 12.187c.382 1.498.707 3.054.99 4.58a73.651 73.651 0 0 1 1.16 13.147c0 4.524-.396 8.906-1.16 13.12a73.24 73.24 0 0 1-3.506 12.695c-1.527 4.128-3.45 8.086-5.684 11.875-2.233 3.76-4.792 7.267-7.605 10.546l-.114.113a73.076 73.076 0 0 1-7.718-10.659 72.887 72.887 0 0 1-5.711-11.875 73.09 73.09 0 0 1-3.478-12.695 73.58 73.58 0 0 1-1.16-13.12c0-4.552.396-8.935 1.16-13.147a74.419 74.419 0 0 1 3.478-12.695c1.541-4.129 3.464-8.086 5.711-11.875a74.368 74.368 0 0 1 7.591-10.547l.126-.113a74.42 74.42 0 0 1 7.691 10.66 70.66 70.66 0 0 1 5.712 11.875l.114.252zm-50.413 95.314-.07.197a74.145 74.145 0 0 1 5.061 5.4 74.564 74.564 0 0 1 7.591 10.773 76.513 76.513 0 0 1 5.57 12.016 72.435 72.435 0 0 1 3.31 12.695 74.253 74.253 0 0 1 1.003 13.176 75.002 75.002 0 0 1-1.358 13.035 73.892 73.892 0 0 1-11.975-5.344 72.875 72.875 0 0 1-10.913-7.437 74.56 74.56 0 0 1-9.274-9.161 74.348 74.348 0 0 1-7.565-10.716l-.154-.255c-2.22-3.873-4.073-7.859-5.514-11.902a73.256 73.256 0 0 1-3.323-12.725 73.236 73.236 0 0 1 .354-26.21c4.155 1.443 8.17 3.225 11.988 5.373a69.476 69.476 0 0 1 9.118 6.023 212.502 212.502 0 0 1 6.603-18.182c2.911-6.955 6.163-13.741 9.755-20.244a3.637 3.637 0 0 1 4.977-1.441c1.781.961 2.43 3.194 1.455 4.975-3.478 6.334-6.629 12.838-9.4 19.539a196.537 196.537 0 0 0-7.239 20.415zm-2.955 103.032c.056.255.084.538.084.793 3.323.706 6.603 1.61 9.827 2.771a76.36 76.36 0 0 1 11.988 5.569 77.935 77.935 0 0 1 10.787 7.605c3.406 2.885 6.517 6.023 9.26 9.359a73.018 73.018 0 0 1 7.407 10.886 73.482 73.482 0 0 1 5.387 11.988 72.865 72.865 0 0 1-13.063 1.357 74 74 0 0 1-13.148-.989c-4.297-.707-8.566-1.838-12.738-3.309a76.362 76.362 0 0 1-11.988-5.598 71.515 71.515 0 0 1-10.772-7.578 73.224 73.224 0 0 1-9.26-9.359 73.23 73.23 0 0 1-7.422-10.885 72.417 72.417 0 0 1-5.372-11.989 72.772 72.772 0 0 1 13.063-1.356c2.771-.057 5.556.084 8.342.367a209.689 209.689 0 0 1-3.492-20.584 208.516 208.516 0 0 1-1.457-22.931c-.014-2.035 1.611-3.703 3.618-3.703a3.654 3.654 0 0 1 3.705 3.619c.07 7.407.551 14.815 1.428 22.167a202.373 202.373 0 0 0 3.816 21.8zm49.665 92.458c.226.255.423.537.579.819a73.56 73.56 0 0 1 25.037-4.353c4.538 0 8.935.396 13.134 1.159a73.674 73.674 0 0 1 12.709 3.478 76.437 76.437 0 0 1 11.86 5.711 73.099 73.099 0 0 1 10.532 7.606l.128.113c-3.337 2.884-6.885 5.485-10.618 7.69a73.213 73.213 0 0 1-11.903 5.711 73.895 73.895 0 0 1-12.695 3.506 73.594 73.594 0 0 1-13.148 1.16c-4.524 0-8.905-.396-13.119-1.16a73.23 73.23 0 0 1-12.709-3.506c-4.115-1.526-8.088-3.449-11.862-5.683a74.041 74.041 0 0 1-10.546-7.605l-.112-.113a72.985 72.985 0 0 1 10.645-7.72 68.622 68.622 0 0 1 5.585-2.997 208.258 208.258 0 0 1-14.096-16.936 208.611 208.611 0 0 1-13.104-19.735c-1.018-1.754-.438-3.987 1.3-5.005 1.753-1.019 4.001-.453 5.019 1.3a203.216 203.216 0 0 0 12.653 19.029 197.27 197.27 0 0 0 14.731 17.531zm321.227-36.56c1.018-1.753 3.279-2.318 5.019-1.3a3.647 3.647 0 0 1 1.3 5.005 208.567 208.567 0 0 1-13.106 19.735 210.87 210.87 0 0 1-14.094 16.936c1.923.905 3.788 1.923 5.613 2.997a76.104 76.104 0 0 1 10.631 7.72l-.127.113a74.893 74.893 0 0 1-10.533 7.605 73.801 73.801 0 0 1-11.86 5.683 73.985 73.985 0 0 1-12.71 3.506 73.571 73.571 0 0 1-13.146 1.16c-4.526 0-8.907-.396-13.12-1.16a73.29 73.29 0 0 1-12.71-3.506c-4.142-1.526-8.128-3.477-11.889-5.711-3.732-2.205-7.296-4.807-10.632-7.69l.128-.113a73.994 73.994 0 0 1 10.532-7.606 77.097 77.097 0 0 1 11.86-5.711 73.8 73.8 0 0 1 12.71-3.478 73.555 73.555 0 0 1 13.12-1.159 73.475 73.475 0 0 1 25.051 4.353 4 4 0 0 1 .593-.819 199.492 199.492 0 0 0 14.731-17.53 200.696 200.696 0 0 0 12.639-19.03zm27.524-99.864c.015-2.009 1.682-3.647 3.688-3.619 2.037 0 3.648 1.668 3.648 3.703a211.727 211.727 0 0 1-1.471 22.931 205.357 205.357 0 0 1-3.506 20.584c2.799-.283 5.6-.424 8.37-.367 4.354.057 8.737.508 13.063 1.356a73.513 73.513 0 0 1-5.373 11.989 73.158 73.158 0 0 1-16.681 20.244 71.798 71.798 0 0 1-10.803 7.578 73.926 73.926 0 0 1-11.988 5.598c-4.155 1.471-8.424 2.602-12.722 3.309a73.924 73.924 0 0 1-13.148.989 73.048 73.048 0 0 1-13.063-1.357 75.959 75.959 0 0 1 5.371-11.988 73.362 73.362 0 0 1 16.683-20.245 76.963 76.963 0 0 1 10.801-7.605 75.731 75.731 0 0 1 11.988-5.569c3.224-1.16 6.503-2.064 9.811-2.771 0-.255.028-.538.086-.793a203.142 203.142 0 0 0 3.817-21.799 203.774 203.774 0 0 0 1.429-22.168zm-24.84-99.019a3.707 3.707 0 0 1 1.456-5.004 3.695 3.695 0 0 1 4.99 1.471c3.591 6.503 6.842 13.289 9.755 20.244a206.879 206.879 0 0 1 6.588 18.182 70.436 70.436 0 0 1 9.133-6.023c3.803-2.148 7.832-3.93 11.975-5.373a75.548 75.548 0 0 1 1.371 13.064 73.553 73.553 0 0 1-1.019 13.146 71.999 71.999 0 0 1-3.308 12.725 73.993 73.993 0 0 1-5.527 11.902l-.156.255a75.446 75.446 0 0 1-7.549 10.716 73.817 73.817 0 0 1-9.302 9.161 71.34 71.34 0 0 1-10.887 7.437 73.337 73.337 0 0 1-11.988 5.344 73.57 73.57 0 0 1-1.356-13.035 75.593 75.593 0 0 1 1.004-13.176 73.702 73.702 0 0 1 3.321-12.695 74.134 74.134 0 0 1 5.571-11.988 72.877 72.877 0 0 1 7.592-10.801 70.402 70.402 0 0 1 5.046-5.4l-.056-.197a199.89 199.89 0 0 0-7.238-20.414c-2.77-6.675-5.938-13.207-9.416-19.541zm-65.624-71.279c-1.697-1.103-2.15-3.393-1.046-5.09 1.13-1.668 3.405-2.148 5.089-1.018a203.176 203.176 0 0 1 16.145 11.848 210.893 210.893 0 0 1 11.677 10.178l.101-.254a71.766 71.766 0 0 1 5.695-11.875 75.876 75.876 0 0 1 7.719-10.66l.114.113a75.693 75.693 0 0 1 7.605 10.547c2.233 3.789 4.157 7.746 5.684 11.875a73.24 73.24 0 0 1 3.506 12.695 73.559 73.559 0 0 1 1.16 13.147c0 4.524-.396 8.906-1.16 13.12a73.152 73.152 0 0 1-3.506 12.695 69.462 69.462 0 0 1-5.698 11.875 72.789 72.789 0 0 1-7.705 10.659l-.112-.113a74.07 74.07 0 0 1-7.606-10.546 73.8 73.8 0 0 1-9.187-24.57 73.487 73.487 0 0 1-1.16-13.12c0-4.552.396-8.935 1.16-13.147.268-1.526.593-3.082.975-4.58a204.912 204.912 0 0 0-13.883-12.355 200.662 200.662 0 0 0-15.567-11.424zM251.928 66.574c0-1.922 1.569-3.477 3.478-3.477s3.478 1.555 3.478 3.477v21.291c0 1.923-1.568 3.479-3.478 3.479s-3.478-1.556-3.478-3.479V66.574zm81.87 43.26c1.653-.96 3.774-.366 4.72 1.273.948 1.668.383 3.789-1.271 4.721l-18.447 10.66c-1.655.934-3.777.368-4.723-1.271-.947-1.669-.383-3.789 1.286-4.723l18.435-10.66zm-160.232 5.994c-1.669-.932-2.234-3.053-1.287-4.721a3.475 3.475 0 0 1 4.734-1.273l18.436 10.66c1.655.934 2.234 3.054 1.272 4.723-.947 1.64-3.067 2.205-4.722 1.271l-18.433-10.66zm119.289-28.557a3.488 3.488 0 0 1 4.75-1.244c1.64.934 2.206 3.082 1.259 4.723l-6.503 11.253a3.455 3.455 0 0 1-4.736 1.272 3.494 3.494 0 0 1-1.272-4.75l6.502-11.254zm-80.921 3.479c-.948-1.641-.381-3.789 1.272-4.723 1.655-.961 3.789-.395 4.736 1.244l6.503 11.254c.947 1.668.382 3.788-1.258 4.75a3.47 3.47 0 0 1-4.75-1.272l-6.503-11.253zm6.645 268.748c-.198 1.839-1.767 3.252-3.648 3.252a3.68 3.68 0 0 1-3.69-3.676c0-.396.072-.764.184-1.131.877-4.1 1.442-8.172 1.541-12.243.1-3.421-.126-6.87-.721-10.319a81.805 81.805 0 0 1-20.215-9.642 82.846 82.846 0 0 1-18.463-16.513 82.864 82.864 0 0 1-12.696-21.064 81.536 81.536 0 0 1-5.868-23.751c-.183-2.007 1.316-3.816 3.323-3.986 2.007-.169 3.803 1.301 3.973 3.309a73.14 73.14 0 0 0 5.357 21.601 74.346 74.346 0 0 0 11.564 19.199c4.806 5.824 10.49 10.885 16.824 15.07 6.235 4.071 13.091 7.267 20.399 9.359 1.258.366 2.304 1.413 2.588 2.771.988 4.692 1.385 9.415 1.272 14.138-.127 4.55-.734 9.103-1.724 13.626zm-97.336 110.554a3.485 3.485 0 0 1-3.478-3.479c0-1.894 1.57-3.477 3.478-3.477h112.081a205.362 205.362 0 0 1-30.536-5.599 208.927 208.927 0 0 1-49.623-20.159 3.67 3.67 0 0 1-1.371-5.006c.99-1.753 3.238-2.375 5.005-1.386a198.64 198.64 0 0 0 47.839 19.426c16.342 4.297 33.562 6.588 51.346 6.588s35.003-2.291 51.376-6.588a198.904 198.904 0 0 0 47.839-19.426c1.753-.989 4.001-.367 5.005 1.386.99 1.754.368 3.987-1.385 5.006a208.69 208.69 0 0 1-49.623 20.159 205.338 205.338 0 0 1-30.536 5.599h64.637c1.907 0 3.476 1.583 3.476 3.477a3.483 3.483 0 0 1-3.476 3.479H121.243zm113.466 15.947a3.486 3.486 0 0 1-3.478-3.479 3.486 3.486 0 0 1 3.478-3.478h181.31a3.476 3.476 0 0 1 3.478 3.478 3.476 3.476 0 0 1-3.478 3.479h-181.31zm199.858 0a3.473 3.473 0 0 1-3.464-3.479 3.473 3.473 0 0 1 3.464-3.478h22.675a3.476 3.476 0 0 1 3.479 3.478 3.476 3.476 0 0 1-3.479 3.479h-22.675zm-363.61-.481c-1.921 0-3.478-1.555-3.478-3.478s1.556-3.479 3.478-3.479h85.913c1.923 0 3.478 1.556 3.478 3.479s-1.555 3.478-3.478 3.478H70.957zm106.666-256.705v-49.904h-8.27v31.442c0 2.572.367 5.032 1.074 7.322a24.53 24.53 0 0 0 3.238 6.645 24.388 24.388 0 0 0 3.958 4.495z" style="fill-rule:evenodd;clip-rule:evenodd"/>
</svg>
