<svg width="800" height="800" viewBox="0 0 50 50" xmlns="http://www.w3.org/2000/svg">
    <path d="M39 2.031a.976.976 0 0 0-.656.375l-3 3.813A3.086 3.086 0 0 0 32.906 5h-2.812A3.106 3.106 0 0 0 27 8.094v7.812c0 1.7 1.395 3.094 3.094 3.094h2.812c.992 0 1.875-.488 2.438-1.219l3 3.813a.97.97 0 0 0 1.218.25l9.907-5.407a.97.97 0 0 0-.594-1.813.984.984 0 0 0-.344.126l-9.156 5.031L36 15.5V8.531l3.375-4.281 9.156 5a.97.97 0 1 0 .938-1.688l-9.907-5.406A.979.979 0 0 0 39 2.031ZM9 3c-4.96 0-9 4.04-9 9s4.04 9 9 9 9-4.04 9-9-4.04-9-9-9Zm9.688 4C19.48 8.52 20 10.172 20 12c0 1.828-.52 4.48-1.313 6h6.282c-.074-.348-.063-1.633-.063-2V8c0-.367-.011-.652.063-1ZM9 7.344c2.559 0 4.656 2.097 4.656 4.656 0 2.559-2.097 4.656-4.656 4.656-2.559 0-4.656-2.097-4.656-4.656C4.344 9.441 6.44 7.344 9 7.344Zm8.813 11.218C15.805 21.242 12.601 23 9 23c-1.227 0-2.398-.223-3.5-.594l8.781 16.563h15.063ZM6.874 41C5.254 41 4 42.316 4 44v5c0 .582.418 1 1 1h34c.582 0 1-.418 1-1v-5c0-1.684-1.254-3-2.875-3Z"/>
</svg>
