<svg height="800" width="800" xmlns="http://www.w3.org/2000/svg" viewBox="0 0 32 32" xml:space="preserve">
    <path d="M21.7 18H10.3C7.9 18 6 16.1 6 13.7V9.3C6 6.9 7.9 5 10.3 5h11.5C24.1 5 26 6.9 26 9.3v4.5c0 2.3-1.9 4.2-4.3 4.2zM10.3 7C9 7 8 8 8 9.3v4.5C8 15 9 16 10.3 16h11.5c1.3 0 2.3-1 2.3-2.3V9.3C24 8 23 7 21.7 7H10.3z"/>
    <path d="M19 11h-6c-.6 0-1-.4-1-1s.4-1 1-1h6c.6 0 1 .4 1 1s-.4 1-1 1zM9.4 7.1h13.3c.3 0 .7-.2.8-.5.2-.3.2-.6.1-1-1.5-3-4-4.6-7.6-4.6-3.6 0-6.1 1.6-7.5 4.7-.2.3-.2.7 0 1 .2.3.5.4.9.4zM12 20.3v1.5c-.9.2-1.8.5-2.6.8 1.6 1 4 1.6 6.6 1.6 2.6 0 5-.6 6.6-1.6-.8-.3-1.7-.6-2.6-.8v-1.5c.9-.7 1.7-1.7 2.4-2.8.2-.3.2-.7 0-1s-.5-.5-.9-.5h-11c-.4 0-.7.2-.9.5s-.2.7 0 1c.8 1.1 1.5 2.1 2.4 2.8z"/>
    <path d="M24.6 23.7c-1.9 1.6-5 2.6-8.6 2.6-3.5 0-6.6-1-8.6-2.6-2.5 1.6-4.1 3.8-4.4 6.2 0 .3.1.6.2.8s.6.3.8.3h24c.3 0 .6-.1.7-.3s.3-.5.2-.8c-.2-2.5-1.9-4.7-4.3-6.2z"/>
</svg>
